# xmcd
#
# Track frame offsets:
# 150
# 14300
# 31600
# 53787
# 77375
# 100925
# 117574
# 134524
# 156799
# 178974
# 197724
# 218061
# 231999
# 256874
# 278174
# 297924
#
# Disc length: 4325 seconds
#
# Revision: 0
# Processed by: cddbd v1.4PL0 Copyright (c) Steve Scherf et al.
# Submitted via: Audion 3.0.2 (http://www.panic.com/audion/)
#
DISCID=df10e310
DTITLE=TOTO - THE BALLADS
DYEAR=1900
DGENRE=
TTITLE0=A SECRET LOVE
TTITLE1=I'LL BE OVER YOU
TTITLE2=AFRICA
TTITLE3=99
TTITLE4=MAMA
TTITLE5=SOMEWHERE TONIGHT
TTITLE6=TAKIN' IT BACK
TTITLE7=I WON'T HOLD YOU BACK
TTITLE8=ANNA
TTITLE9=GEORGY PORGY
TTITLE10=LEA
TTITLE11=IT'S A FEELING
TTITLE12=ROSANNA
TTITLE13=ANGELA
TTITLE14=ONLY YOU
TTITLE15=OUT OF LOVE
EXTD=
EXTT0=
EXTT1=
EXTT2=
EXTT3=
EXTT4=
EXTT5=
EXTT6=
EXTT7=
EXTT8=
EXTT9=
EXTT10=
EXTT11=
EXTT12=
EXTT13=
EXTT14=
EXTT15=
PLAYORDER=
